<svg class="rxsvg" xmlns="http://www.w3.org/2000/svg" viewBox="0 0 475.94 90.14">
  <defs>
    <style>
      .cls-1 {
        fill: #a485bf;
      }
      .cls-13 {
        fill: #000000;
      }
    </style>
  </defs>
  <path class="cls-1" d="M37.56,68.09c3.95,0,7.25-2.72,8.17-6.39h0c2.76-9.9,10.39-9.27,13.6-8.52.46.18.94.33,1.45.43.53.1,1.07.16,1.63.16,4.65,0,8.42-3.77,8.42-8.42,0-4.65-3.77-8.42-8.42-8.42-2.29,0-4.54,1.01-6.12,2.73-1.78,1.93-1.76,4.23-2.93,6.39-2.44,4.48-7.97,6.42-12.85,5.65-2.81-.44-5.22-.68-7.71,1.03-2.28,1.56-3.67,4.19-3.67,6.95,0,4.65,3.77,8.42,8.42,8.42Z"></path>
  <circle class="cls-1" cx="86" cy="31.93" r="8.21"></circle>
  <path class="cls-1" d="M38.99,41.87c3.95,0,7.25-2.72,8.17-6.39h0c2.76-9.9,10.39-9.27,13.6-8.52.46.18.94.33,1.45.43.53.1,1.07.16,1.63.16,4.65,0,8.42-3.77,8.42-8.42,0-4.65-3.77-8.42-8.42-8.42-2.29,0-4.54,1.01-6.12,2.73-1.78,1.93-1.76,4.23-2.93,6.39-2.44,4.48-7.97,6.42-12.85,5.65-2.81-.44-5.22-.68-7.71,1.03-2.28,1.56-3.67,4.19-3.67,6.95,0,4.65,3.77,8.42,8.42,8.42Z"></path>
  <path class="cls-1" d="M60.43,80c3.95,0,7.25-2.72,8.17-6.39h0c2.76-9.9,10.39-9.27,13.6-8.52.46.18.94.33,1.45.43.53.1,1.07.16,1.63.16,4.65,0,8.42-3.77,8.42-8.42s-3.77-8.42-8.42-8.42c-2.29,0-4.54,1.01-6.12,2.73-1.78,1.93-1.76,4.23-2.93,6.39-2.44,4.48-7.97,6.42-12.85,5.65-2.81-.44-5.22-.68-7.71,1.03-2.28,1.56-3.67,4.19-3.67,6.95,0,4.65,3.77,8.42,8.42,8.42Z"></path>
  <g>
    <path class="cls-13" d="M139.35,22.44c6.1,0,11.34,2.21,15.73,6.62,4.39,4.41,6.58,9.8,6.58,16.14s-2.17,11.61-6.49,15.97c-4.33,4.36-9.58,6.53-15.76,6.53s-11.84-2.24-16.12-6.71c-4.28-4.47-6.42-9.79-6.42-15.94,0-4.12,1-7.91,2.99-11.37,2.1-3.64,5.03-6.49,8.79-8.54,3.29-1.79,6.96-2.71,10.71-2.71ZM139.26,30.47c-3.99,0-7.34,1.39-10.06,4.16-2.72,2.77-4.08,6.3-4.08,10.58,0,4.77,1.71,8.54,5.13,11.31,2.66,2.17,5.71,3.25,9.15,3.25,3.89,0,7.2-1.41,9.94-4.22s4.11-6.28,4.11-10.4-1.38-7.57-4.14-10.42-6.11-4.26-10.06-4.26Z"></path>
    <path class="cls-13" d="M165.51,34.74h8v3.27c1.81-1.53,3.46-2.59,4.93-3.19,1.47-.6,2.98-.9,4.52-.9,3.16,0,5.84,1.1,8.04,3.31,1.85,1.88,2.78,4.65,2.78,8.32v21.06h-7.91v-13.96c0-3.8-.17-6.33-.51-7.58-.34-1.25-.94-2.2-1.78-2.85s-1.89-.98-3.14-.98c-1.62,0-3.01.54-4.17,1.62-1.16,1.08-1.96,2.58-2.41,4.49-.23,1-.35,3.15-.35,6.47v12.79h-8v-31.88Z"></path>
    <path class="cls-13" d="M230.45,53h-25.69c.37,2.27,1.36,4.07,2.97,5.41,1.61,1.34,3.67,2.01,6.17,2.01,2.99,0,5.56-1.04,7.71-3.13l6.74,3.16c-1.68,2.38-3.69,4.15-6.04,5.29s-5.13,1.71-8.35,1.71c-5,0-9.07-1.58-12.22-4.73-3.14-3.15-4.72-7.1-4.72-11.85s1.57-8.9,4.7-12.11c3.13-3.21,7.07-4.82,11.79-4.82,5.02,0,9.1,1.61,12.25,4.82,3.14,3.21,4.72,7.46,4.72,12.73l-.03,1.52ZM222.46,46.7c-.53-1.78-1.57-3.22-3.13-4.34-1.55-1.11-3.36-1.67-5.41-1.67-2.23,0-4.19.63-5.87,1.88-1.06.78-2.03,2.16-2.93,4.13h17.34Z"></path>
    <path class="cls-13" d="M274.59,30.55h0c-2.88,2.85-7.29,3.65-10.88,1.77-2.37-1.24-4.93-1.86-7.68-1.86-4.24,0-7.79,1.4-10.65,4.21-2.87,2.82-4.39,6.64-4.3,10.66.09,3.99,1.58,7.38,4.45,10.18,2.97,2.89,6.64,4.34,11,4.34,2.83,0,5.23-.6,7.17-1.79,1.95-1.19,3.51-3.06,4.71-5.6h-12.48c0-4.26,3.45-7.71,7.71-7.71h13.97l.06,1.82c0,3.77-.98,7.34-2.93,10.72-1.95,3.38-4.48,5.96-7.59,7.73s-6.75,2.67-10.93,2.67c-4.47,0-8.46-.97-11.97-2.92s-6.28-4.71-8.32-8.31c-2.04-3.59-3.06-7.47-3.06-11.63,0-5.7,1.88-10.66,5.65-14.88,4.47-5.02,10.29-7.53,17.46-7.53,3.75,0,7.26.69,10.52,2.08,2.75,1.17,5.45,3.18,8.09,6.04Z"></path>
    <path class="cls-13" d="M279.44,34.74h6.86v4.01c.74-1.58,1.73-2.78,2.96-3.6s2.58-1.23,4.04-1.23c1.04,0,2.12.27,3.25.82l-2.49,6.88c-.94-.47-1.71-.7-2.31-.7-1.23,0-2.27.76-3.12,2.29s-1.27,4.51-1.27,8.96l.03,1.55v12.89h-7.94v-31.88Z"></path>
    <path class="cls-13" d="M312.48,33.92c3.01,0,5.83.75,8.48,2.26,2.65,1.5,4.71,3.54,6.2,6.12,1.64,2.85,2.38,5.95,2.2,9.3-.12,2.31-.73,4.59-1.77,6.66-1.52,3.02-3.71,5.34-6.55,6.96-2.58,1.47-5.42,2.21-8.53,2.21-4.57,0-8.47-1.63-11.7-4.88s-4.85-7.2-4.85-11.85c0-4.98,1.83-9.13,5.48-12.45,3.2-2.89,6.88-4.34,11.04-4.34ZM312.61,41.45c-2.48,0-4.55.86-6.21,2.59s-2.48,3.94-2.48,6.64.82,5.02,2.45,6.74c1.63,1.72,3.7,2.58,6.21,2.58s4.59-.87,6.25-2.61c1.66-1.74,2.49-3.97,2.49-6.71s-.82-4.96-2.45-6.67c-1.63-1.71-3.72-2.56-6.27-2.56Z"></path>
    <path class="cls-13" d="M332.89,34.74h8.09v15.35c0,2.99.21,5.06.62,6.23.41,1.16,1.07,2.07,1.98,2.71.91.64,2.03.97,3.36.97s2.46-.32,3.39-.95c.93-.63,1.62-1.57,2.07-2.8.33-.92.5-2.88.5-5.89v-15.62h8v13.51c0,5.57-.44,9.38-1.32,11.43-1.07,2.5-2.66,4.42-4.75,5.76s-4.75,2.01-7.97,2.01c-3.5,0-6.32-.78-8.48-2.34s-3.68-3.74-4.56-6.53c-.62-1.93-.94-5.45-.94-10.55v-13.27Z"></path>
    <path class="cls-13" d="M365.92,34.74h8v3.27c1.81-1.53,3.46-2.59,4.93-3.19,1.47-.6,2.98-.9,4.52-.9,3.16,0,5.84,1.1,8.04,3.31,1.85,1.88,2.78,4.65,2.78,8.32v21.06h-7.91v-13.96c0-3.8-.17-6.33-.51-7.58-.34-1.25-.94-2.2-1.78-2.85s-1.89-.98-3.14-.98c-1.62,0-3.01.54-4.17,1.62-1.16,1.08-1.96,2.58-2.41,4.49-.23,1-.35,3.15-.35,6.47v12.79h-8v-31.88Z"></path>
    <path class="cls-13" d="M422.45,22.44h8v44.18h-8v-3.37c-1.56,1.48-3.13,2.55-4.7,3.21-1.57.65-3.27.98-5.11.98-4.12,0-7.68-1.6-10.68-4.79-3-3.19-4.51-7.16-4.51-11.91s1.45-8.95,4.36-12.1c2.91-3.14,6.44-4.72,10.59-4.72,1.91,0,3.71.36,5.38,1.08,1.68.72,3.23,1.81,4.65,3.25v-15.82ZM414.05,41.31c-2.47,0-4.53.87-6.16,2.62-1.64,1.75-2.45,3.99-2.45,6.72,0,2.95.95,5.33,2.86,7.16,1.64,1.57,3.91,2.38,6.18,2.29s4.28-.96,5.85-2.61c1.65-1.75,2.48-4.04,2.48-6.87s-.83-5.02-2.48-6.74c-1.65-1.72-3.75-2.58-6.28-2.58Z"></path>
  </g>
</svg>
