<svg id="logomask" xmlns="http://www.w3.org/2000/svg" viewBox="0 0 95.53 86.17">
  <defs>
    <style>
      .cls-1 {
        fill: #f3ecf9;
      }
    </style>
  </defs>
  <path class="cls-1" d="M23.65,65.83c3.95,0,7.25-2.72,8.17-6.39h0c2.76-9.9,10.39-9.27,13.6-8.52.46.18.94.33,1.45.43.53.1,1.07.16,1.63.16,4.65,0,8.42-3.77,8.42-8.42,0-4.65-3.77-8.42-8.42-8.42-2.29,0-4.54,1.01-6.12,2.73-1.78,1.93-1.76,4.23-2.93,6.39-2.44,4.48-7.97,6.42-12.85,5.65-2.81-.44-5.22-.68-7.71,1.03-2.28,1.56-3.67,4.19-3.67,6.95,0,4.65,3.77,8.42,8.42,8.42Z"></path>
  <circle class="cls-1" cx="72.09" cy="29.67" r="8.21"></circle>
  <path class="cls-1" d="M25.07,39.61c3.95,0,7.25-2.72,8.17-6.39h0c2.76-9.9,10.39-9.27,13.6-8.52.46.18.94.33,1.45.43.53.1,1.07.16,1.63.16,4.65,0,8.42-3.77,8.42-8.42,0-4.65-3.77-8.42-8.42-8.42-2.29,0-4.54,1.01-6.12,2.73-1.78,1.93-1.76,4.23-2.93,6.39-2.44,4.48-7.97,6.42-12.85,5.65-2.81-.44-5.22-.68-7.71,1.03-2.28,1.56-3.67,4.19-3.67,6.95,0,4.65,3.77,8.42,8.42,8.42Z"></path>
  <path class="cls-1" d="M46.52,77.74c3.95,0,7.25-2.72,8.17-6.39h0c2.76-9.9,10.39-9.27,13.6-8.52.46.18.94.33,1.45.43.53.1,1.07.16,1.63.16,4.65,0,8.42-3.77,8.42-8.42,0-4.65-3.77-8.42-8.42-8.42-2.29,0-4.54,1.01-6.12,2.73-1.78,1.93-1.76,4.23-2.93,6.39-2.44,4.48-7.97,6.42-12.85,5.65-2.81-.44-5.22-.68-7.71,1.03-2.28,1.56-3.67,4.19-3.67,6.95,0,4.65,3.77,8.42,8.42,8.42Z"></path>
</svg>
