<svg version="1.1" id="dd23" xmlns="http://www.w3.org/2000/svg" xmlns:xlink="http://www.w3.org/1999/xlink" x="0px" y="0px" viewBox="0 0 479.3 129.29" style="enable-background:new 0 0 479.3 129.29;" xml:space="preserve">
<style type="text/css">
	.st066{fill:#fff;}
</style>
<g>
	<path class="st066" d="M117.48,120.25c3.83-3.89,3.59-10-0.52-13.58c-4.86-4.23-20.48-16.53-24.33-19.94
		c-1.12-0.99-2.25-1.96-3.41-2.9c-0.77-0.62-1.54-1.23-2.31-1.85c-0.28-0.23-1.12-0.6-0.86-1.08c0.05-0.1,0.14-0.17,0.22-0.24
		c3.85-3.36,7.54-6.89,11.26-10.4c0.09-0.09,0.19-0.18,0.28-0.27c2.83-2.66,5.58-5.45,8.48-8.03c9.07-8.63,11.93-18.61,7.63-29.92
		C109.72,21,99.38,13.66,86.93,13.56c-17.1-0.14-45.5-0.11-64.31-0.08c-4.98,0.01-8.98,4.05-8.98,9.03v0
		c0,5.67,4.58,10.26,10.25,10.27c17.81,0,44.88,0.01,60.88-0.02c4.86-0.01,9.01-0.36,11.04,4.47c1.96,4.67-0.38,8.36-5.48,13.13
		c-5.73,5.36-11.12,10.26-16.42,15.55c-0.33,0.33-0.65,0.64-0.97,0.95c-1.19,1.13-3.04,1.2-4.31,0.16
		c-6.45-5.31-12.84-10.68-19.38-15.89c-2.22-1.77-4.63-3.44-7.21-4.56c-13.67-5.94-29.5,3.03-29.84,17.42
		c-0.3,12.99-0.28,25.99,0.02,38.98c0.21,8.86,5.24,15.45,13.61,18.66c7.56,2.9,16.17,1.01,22.07-4.53
		c7.56-7.09,15.06-14.24,22.59-21.36c0.72-0.68,1.82-0.74,2.59-0.1c5.47,4.56,23.56,19.07,30.09,24.85
		c4.09,3.63,10.28,3.54,14.26-0.21 M53.85,84.92c-4.31,4.08-8.52,8.07-12.73,12.05c-0.92,0.87-1.79,1.78-2.71,2.64
		c-0.85,0.79-1.77,1.65-2.87,2.08c-0.6,0.23-1.29,0.29-1.87,0.03c-0.8-0.37-1.23-1.28-1.35-2.16c-0.14-1.02-0.06-2.09-0.06-3.13
		c-0.01-1.76-0.02-3.52-0.03-5.28c-0.02-3.52-0.02-7.04-0.02-10.56c0-3.52,0.01-7.04,0.02-10.56c0-0.77,0-1.55,0.01-2.32
		c0.01-2.49,2.01-3.85,3.76-2.45c5.91,4.71,11.74,9.53,17.67,14.41C55.29,81,55.37,83.48,53.85,84.92z"></path>
</g>
<g>
	<path class="st066" d="M179.57,34.29c-9.4,0-16.51,6.34-16.51,15.11l0.01-14.82l-19.83,0v76.94h21.22V72.26
		c0-11.98,5.31-20.62,18.2-20.62c2.43,0,4.51,0.1,7.09,0.28l0.15-17.63"></path>
	<path class="st066" d="M272.73,56.33c-2.3-4.87-5.43-8.9-9.38-12.09c-3.95-3.19-8.53-5.6-13.75-7.22
		c-5.22-1.62-10.74-2.43-16.57-2.43c-5.83,0-11.35,0.79-16.57,2.36c-5.21,1.57-9.8,3.98-13.75,7.22c-3.95,3.25-7.1,7.3-9.45,12.17
		c-2.35,4.87-3.53,10.59-3.53,17.18c0,6.59,1.17,12.32,3.53,17.18c2.35,4.87,5.5,8.92,9.45,12.17c3.95,3.24,8.53,5.65,13.75,7.22
		c5.22,1.57,10.74,2.36,16.57,2.36c5.83,0,11.36-0.79,16.57-2.36c5.21-1.57,9.8-3.98,13.75-7.22c3.95-3.24,7.08-7.3,9.38-12.17
		c2.3-4.87,3.46-10.59,3.46-17.18C276.19,66.93,275.03,61.2,272.73,56.33z M254.19,82.64c-1.22,2.64-2.89,4.87-5.01,6.69
		c-2.11,1.83-4.56,3.22-7.33,4.18c-2.77,0.96-5.71,1.44-8.81,1.44c-3.19,0-6.2-0.45-9.02-1.37c-2.82-0.91-5.29-2.28-7.41-4.11
		c-2.11-1.82-3.76-4.08-4.93-6.77c-1.18-2.69-1.76-5.75-1.76-9.2c0-3.35,0.63-6.36,1.9-9.05c1.27-2.68,2.98-4.97,5.15-6.84
		c2.16-1.87,4.63-3.29,7.4-4.26c2.77-0.96,5.66-1.44,8.67-1.44c3.1,0,6.04,0.48,8.81,1.44c2.78,0.96,5.22,2.36,7.33,4.18
		c2.12,1.83,3.78,4.08,5.01,6.77c1.22,2.69,1.83,5.76,1.83,9.2C256.02,76.96,255.42,80,254.19,82.64z"></path>
	<path class="st066" d="M337.47,35.5l-15.06,19.31c-1.12,1.42-1.67,3.14-1.67,5.17h-0.3c0-0.91-0.13-1.83-0.38-2.74
		c-0.26-0.91-0.64-1.72-1.14-2.43L303.71,35.5h-27.52l29.66,37.86l-29.66,38.17h27.37l15.21-19.77c1.12-1.42,1.67-3.09,1.67-5.02
		h0.3c0,1.93,0.56,3.6,1.67,5.02l15.21,19.77h27.52L335.5,73.36l29.65-37.86H337.47z"></path>
	<rect x="372.98" y="5.09" class="st066" width="21.9" height="17.79"></rect>
	<rect x="373.29" y="35.5" class="st066" width="21.29" height="76.03"></rect>
	<path class="st066" d="M447.94,91.61c-2.43,0-4.44-0.53-6.01-1.6c-1.57-1.06-2.36-3.27-2.36-6.61V55.11h22.81V35.04h-31.17
		c-1.62,0-3.34,0.13-5.17,0.38c-1.83,0.25-3.55,0.48-5.17,0.69v-0.3c1.52-0.2,3.21-0.48,5.1-0.84c1.87-0.35,3.52-0.94,4.94-1.75
		c4.57-2.43,7.98-5.78,10.26-10.04c2.29-4.26,3.47-8.97,3.57-14.14H423c0,3.04-0.45,6.08-1.37,9.12c-0.91,3.04-2.1,5.83-3.57,8.36
		c-1.47,2.54-3.15,4.59-5.02,6.16c-1.88,1.57-3.83,2.36-5.85,2.36h-4.56v20.07h15.21v25.7c0,5.07,0.43,9.5,1.29,13.31
		c0.86,3.8,2.31,6.99,4.33,9.58c2.03,2.59,4.77,4.54,8.22,5.85c3.44,1.32,7.8,1.98,13.07,1.98h21.29V91.61H447.94z"></path>
</g>
</svg>
